<svg width="20" height="18" viewBox="0 0 20 18" fill="none" xmlns="http://www.w3.org/2000/svg">
<path fill-rule="evenodd" clip-rule="evenodd" d="M5.78128 1.85717C3.68707 1.85717 1.85717 3.71655 1.85717 6.15597C1.85717 7.64353 2.08344 8.66783 2.8425 9.7703C3.64215 10.9317 5.06254 12.224 7.60592 14.13L10 15.9281L12.3941 14.1301C14.9375 12.224 16.3579 10.9317 17.1576 9.7703C17.9166 8.66783 18.1429 7.64353 18.1429 6.15597C18.1429 3.71655 16.313 1.85717 14.2188 1.85717C12.9275 1.85717 11.7555 2.47411 10.6886 3.91326C10.5269 4.13134 10.2715 4.25994 10 4.25994C9.72855 4.25994 9.47313 4.13134 9.31146 3.91326C8.24457 2.47411 7.07254 1.85717 5.78128 1.85717ZM0.142883 6.15597C0.142883 2.88882 2.62548 0.142883 5.78128 0.142883C7.41039 0.142883 8.81934 0.824201 10 2.06873C11.1807 0.824201 12.5897 0.142885 14.2188 0.142885C17.3746 0.142885 19.8572 2.88882 19.8572 6.15597C19.8572 7.87211 19.5834 9.26983 18.5695 10.7425C17.5962 12.1561 15.9707 13.592 13.4222 15.5019L10.5148 17.6854C10.2098 17.9144 9.79024 17.9144 9.48529 17.6854L6.57786 15.5019C6.57775 15.5018 6.57797 15.5019 6.57786 15.5019C4.02956 13.5921 2.40379 12.156 1.43052 10.7425C0.416608 9.26983 0.142883 7.87211 0.142883 6.15597Z" fill="#9C2B3F"/>
</svg>
