<svg width="28" height="28" viewBox="0 0 28 28" fill="none" xmlns="http://www.w3.org/2000/svg">
<path fill-rule="evenodd" clip-rule="evenodd" d="M11.6333 4.83334H11.7C12.06 4.83333 12.384 4.83331 12.6542 4.85377C12.9432 4.87565 13.2509 4.92506 13.5565 5.06758C14.0892 5.31597 14.5174 5.74411 14.7657 6.2768C14.9083 6.58242 14.9577 6.89017 14.9796 7.17909C15 7.44928 15 7.7733 15 8.13333L15 8.34717C15.0542 8.33808 15.1099 8.33335 15.1666 8.33335H24.5C25.0523 8.33335 25.5 8.78106 25.5 9.33335C25.5 9.88563 25.0523 10.3333 24.5 10.3333H15.1666C15.1099 10.3333 15.0542 10.3286 15 10.3195L15 10.5334C15 10.8934 15 11.2174 14.9796 11.4876C14.9577 11.7765 14.9083 12.0843 14.7657 12.3899C14.5174 12.9226 14.0892 13.3507 13.5565 13.5991C13.2509 13.7416 12.9432 13.791 12.6542 13.8129C12.384 13.8334 12.06 13.8334 11.7 13.8333H11.6333C11.2733 13.8334 10.9492 13.8334 10.6791 13.8129C10.3901 13.791 10.0824 13.7416 9.77677 13.5991C9.24408 13.3507 8.81594 12.9226 8.56754 12.3899C8.42503 12.0843 8.37561 11.7765 8.35373 11.4876C8.33327 11.2174 8.33329 10.8934 8.33331 10.5334L8.33331 10.3195C8.27911 10.3286 8.22343 10.3333 8.16665 10.3333H5.83331C5.28103 10.3333 4.83331 9.88563 4.83331 9.33335C4.83331 8.78106 5.28103 8.33335 5.83331 8.33335H8.16665C8.22343 8.33335 8.27911 8.33808 8.33331 8.34717V8.16668C8.33331 8.15553 8.33331 8.14441 8.33331 8.13333C8.33329 7.7733 8.33327 7.44928 8.35373 7.17909C8.37561 6.89017 8.42503 6.58242 8.56754 6.2768C8.81594 5.74411 9.24408 5.31597 9.77677 5.06758C10.0824 4.92506 10.3901 4.87565 10.6791 4.85377C10.9492 4.83331 11.2733 4.83333 11.6333 4.83334ZM10.6289 6.87765C10.6239 6.87926 10.622 6.88018 10.622 6.88019C10.5155 6.92987 10.4298 7.0155 10.3802 7.12204C10.3801 7.12207 10.3792 7.12398 10.3776 7.1289C10.3759 7.13403 10.3731 7.14351 10.3698 7.15884C10.3628 7.19105 10.3546 7.24368 10.348 7.33011C10.334 7.51558 10.3333 7.76281 10.3333 8.16668V10.5C10.3333 10.9039 10.334 11.1511 10.348 11.3366C10.3546 11.423 10.3628 11.4756 10.3698 11.5078C10.3731 11.5232 10.3759 11.5327 10.3776 11.5378C10.3792 11.5427 10.3801 11.5446 10.3802 11.5447C10.4298 11.6512 10.5155 11.7368 10.622 11.7865C10.622 11.7865 10.6239 11.7874 10.6289 11.789C10.634 11.7907 10.6435 11.7935 10.6588 11.7969C10.691 11.8039 10.7436 11.8121 10.8301 11.8186C11.0155 11.8327 11.2628 11.8333 11.6666 11.8333C12.0705 11.8333 12.3177 11.8327 12.5032 11.8186C12.5896 11.8121 12.6423 11.8039 12.6745 11.7969C12.6898 11.7935 12.6993 11.7907 12.7044 11.789C12.7093 11.7874 12.7113 11.7865 12.7113 11.7865C12.8178 11.7368 12.9035 11.6512 12.9531 11.5447C12.9531 11.5446 12.9541 11.5427 12.9557 11.5378C12.9574 11.5327 12.9602 11.5232 12.9635 11.5078C12.9705 11.4756 12.9787 11.423 12.9853 11.3366C12.9993 11.1511 13 10.9039 13 10.5V8.16668C13 7.76281 12.9993 7.51558 12.9853 7.33011C12.9787 7.24368 12.9705 7.19105 12.9635 7.15884C12.9602 7.14351 12.9574 7.13403 12.9557 7.1289C12.9541 7.12398 12.9531 7.12207 12.9531 7.12204C12.9035 7.0155 12.8178 6.92987 12.7113 6.88019C12.7113 6.88018 12.7093 6.87926 12.7044 6.87765C12.6993 6.87597 12.6898 6.87317 12.6745 6.86984C12.6423 6.86284 12.5896 6.8546 12.5032 6.84806C12.3177 6.83401 12.0705 6.83335 11.6666 6.83335C11.2628 6.83335 11.0155 6.83401 10.8301 6.84806C10.7436 6.8546 10.691 6.86284 10.6588 6.86984C10.6435 6.87317 10.634 6.87597 10.6289 6.87765ZM18.6333 14.1667H18.7C19.06 14.1667 19.384 14.1666 19.6542 14.1871C19.9432 14.209 20.2509 14.2584 20.5565 14.4009C21.0892 14.6493 21.5174 15.0774 21.7658 15.6101C21.9083 15.9157 21.9577 16.2235 21.9796 16.5124C22 16.7826 22 17.1066 22 17.4667V17.6805C22.0542 17.6714 22.1099 17.6667 22.1666 17.6667H24.5C25.0523 17.6667 25.5 18.1144 25.5 18.6667C25.5 19.219 25.0523 19.6667 24.5 19.6667H22.1666C22.1099 19.6667 22.0542 19.6619 22 19.6529V19.8667C22 20.2267 22 20.5507 21.9796 20.8209C21.9577 21.1099 21.9083 21.4176 21.7658 21.7232C21.5174 22.2559 21.0892 22.6841 20.5565 22.9324C20.2509 23.075 19.9432 23.1244 19.6542 23.1463C19.384 23.1667 19.06 23.1667 18.7 23.1667H18.6333C18.2733 23.1667 17.9492 23.1667 17.6791 23.1463C17.3901 23.1244 17.0824 23.075 16.7768 22.9324C16.2441 22.6841 15.8159 22.2559 15.5675 21.7232C15.425 21.4176 15.3756 21.1099 15.3537 20.8209C15.3333 20.5507 15.3333 20.2267 15.3333 19.8667L15.3333 19.6529C15.2791 19.6619 15.2234 19.6667 15.1666 19.6667H5.83331C5.28103 19.6667 4.83331 19.219 4.83331 18.6667C4.83331 18.1144 5.28103 17.6667 5.83331 17.6667H15.1666C15.2234 17.6667 15.2791 17.6714 15.3333 17.6805L15.3333 17.4667C15.3333 17.1066 15.3333 16.7826 15.3537 16.5124C15.3756 16.2235 15.425 15.9157 15.5675 15.6101C15.8159 15.0774 16.2441 14.6493 16.7768 14.4009C17.0824 14.2584 17.3901 14.209 17.6791 14.1871C17.9492 14.1666 18.2733 14.1667 18.6333 14.1667ZM17.6289 16.211C17.6239 16.2126 17.622 16.2135 17.622 16.2135C17.5155 16.2632 17.4298 16.3488 17.3802 16.4554C17.3801 16.4554 17.3792 16.4573 17.3776 16.4622C17.3759 16.4674 17.3731 16.4768 17.3698 16.4922C17.3628 16.5244 17.3546 16.577 17.348 16.6634C17.334 16.8489 17.3333 17.0961 17.3333 17.5V19.8333C17.3333 20.2372 17.334 20.4844 17.348 20.6699C17.3546 20.7563 17.3628 20.809 17.3698 20.8412C17.3731 20.8565 17.3759 20.866 17.3776 20.8711C17.3792 20.876 17.3801 20.878 17.3802 20.878C17.4298 20.9845 17.5155 21.0702 17.622 21.1198C17.622 21.1198 17.6239 21.1208 17.6289 21.1224C17.634 21.1241 17.6435 21.1269 17.6588 21.1302C17.691 21.1372 17.7436 21.1454 17.8301 21.152C18.0155 21.166 18.2628 21.1667 18.6666 21.1667C19.0705 21.1667 19.3177 21.166 19.5032 21.152C19.5896 21.1454 19.6423 21.1372 19.6745 21.1302C19.6898 21.1269 19.6993 21.1241 19.7044 21.1224C19.7093 21.1208 19.7113 21.1198 19.7113 21.1198C19.8178 21.0702 19.9035 20.9845 19.9531 20.878C19.9531 20.878 19.9541 20.876 19.9557 20.8711C19.9574 20.866 19.9602 20.8565 19.9635 20.8412C19.9705 20.809 19.9787 20.7563 19.9853 20.6699C19.9993 20.4844 20 20.2372 20 19.8333V17.5C20 17.0961 19.9993 16.8489 19.9853 16.6634C19.9787 16.577 19.9705 16.5244 19.9635 16.4922C19.9602 16.4768 19.9574 16.4674 19.9557 16.4622C19.9541 16.4573 19.9531 16.4554 19.9531 16.4554C19.9035 16.3488 19.8178 16.2632 19.7113 16.2135C19.7113 16.2135 19.7093 16.2126 19.7044 16.211C19.6993 16.2093 19.6898 16.2065 19.6745 16.2032C19.6423 16.1962 19.5896 16.1879 19.5032 16.1814C19.3177 16.1673 19.0705 16.1667 18.6666 16.1667C18.2628 16.1667 18.0155 16.1673 17.8301 16.1814C17.7436 16.1879 17.691 16.1962 17.6588 16.2032C17.6435 16.2065 17.634 16.2093 17.6289 16.211Z" fill="#111110"/>
</svg>
