<svg width="14" height="14" viewBox="0 0 14 14" fill="none" xmlns="http://www.w3.org/2000/svg">
<path d="M6.04426 1.60489C6.33393 0.663822 7.66607 0.663825 7.95574 1.6049L8.80337 4.35854C8.93251 4.77807 9.32015 5.06434 9.75911 5.06434H12.6123C13.5679 5.06434 13.9791 6.27633 13.2209 6.85785L10.8212 8.69818C10.4895 8.95255 10.351 9.38639 10.474 9.78589L11.3684 12.6914C11.6549 13.6224 10.577 14.3719 9.8041 13.7792L7.60855 12.0954C7.24956 11.8201 6.75044 11.8201 6.39145 12.0954L4.19591 13.7792C3.42301 14.3719 2.34506 13.6224 2.63161 12.6914L3.52599 9.78588C3.64897 9.38639 3.51049 8.95255 3.1788 8.69818L0.779129 6.85785C0.0208566 6.27633 0.432093 5.06434 1.38768 5.06434H4.24089C4.67985 5.06434 5.06749 4.77807 5.19663 4.35853L6.04426 1.60489Z" fill="url(#paint0_linear_296_1647)"/>
<defs>
<linearGradient id="paint0_linear_296_1647" x1="0.297872" y1="1.12766" x2="17.5133" y2="12.188" gradientUnits="userSpaceOnUse">
<stop offset="0.0001" stop-color="#EE7214"/>
<stop offset="0.619792" stop-color="#F4A322"/>
<stop offset="1" stop-color="#FAD531"/>
</linearGradient>
</defs>
</svg>
