<svg width="14" height="14" viewBox="0 0 14 14" fill="none" xmlns="http://www.w3.org/2000/svg">
<path d="M6.52213 1.75199C6.66697 1.28146 7.33303 1.28146 7.47787 1.75199L8.32549 4.50563C8.51921 5.13494 9.10067 5.56434 9.75911 5.56434H12.6123C13.0901 5.56434 13.2957 6.17034 12.9166 6.4611L10.5169 8.30142C10.0194 8.68298 9.81167 9.33374 9.99613 9.93298L10.8905 12.8385C11.0338 13.304 10.4948 13.6788 10.1084 13.3824L7.91283 11.6986C7.37434 11.2857 6.62566 11.2857 6.08717 11.6986L3.89163 13.3824C3.50518 13.6788 2.96621 13.304 3.10948 12.8385L4.00387 9.93298C4.18833 9.33373 3.98061 8.68298 3.48308 8.30142L1.0834 6.4611C0.704268 6.17033 0.909887 5.56434 1.38768 5.56434H4.24089C4.89933 5.56434 5.48079 5.13494 5.67451 4.50563L6.52213 1.75199Z" stroke="url(#paint0_linear_296_1648)"/>
<defs>
<linearGradient id="paint0_linear_296_1648" x1="0.297872" y1="1.12766" x2="17.5133" y2="12.188" gradientUnits="userSpaceOnUse">
<stop offset="0.0001" stop-color="#EE7214"/>
<stop offset="0.619792" stop-color="#F4A322"/>
<stop offset="1" stop-color="#FAD531"/>
</linearGradient>
</defs>
</svg>
