<svg width="24" height="24" viewBox="0 0 24 24" fill="none" xmlns="http://www.w3.org/2000/svg">
<path fill-rule="evenodd" clip-rule="evenodd" d="M12 3.85717C7.50279 3.85717 3.85711 7.50285 3.85711 12C3.85711 16.4972 7.50279 20.1429 12 20.1429C16.4971 20.1429 20.1428 16.4972 20.1428 12C20.1428 7.50285 16.4971 3.85717 12 3.85717ZM2.14282 12C2.14282 6.55608 6.55602 2.14288 12 2.14288C17.4439 2.14288 21.8571 6.55608 21.8571 12C21.8571 17.444 17.4439 21.8572 12 21.8572C6.55602 21.8572 2.14282 17.444 2.14282 12ZM11.8284 6.90024C12.3018 6.90024 12.6855 7.284 12.6855 7.75738V12.8231L16.3045 14.1988C16.747 14.367 16.9694 14.8621 16.8012 15.3046C16.633 15.7471 16.1379 15.9694 15.6954 15.8012L11.5238 14.2154C11.1912 14.089 10.9712 13.7701 10.9712 13.4142V7.75738C10.9712 7.284 11.355 6.90024 11.8284 6.90024Z" fill="#111110"/>
</svg>
